<?xml version="1.0" encoding="utf-8"?>
<!-- Generator: Adobe Illustrator 21.1.0, SVG Export Plug-In . SVG Version: 6.00 Build 0)  -->
<svg version="1.1" id="Layer_1" xmlns="http://www.w3.org/2000/svg" xmlns:xlink="http://www.w3.org/1999/xlink" x="0px" y="0px"
	 viewBox="0 0 750 750" style="enable-background:new 0 0 750 750;" xml:space="preserve">
<g>
	<g>
		<path style="fill:#FFFFFF;" d="M332.6,439.6c10,10,18.3,20.8,24.6,31.7c11.9-8,25.4-19,40.6-34.2
			c77.2-77.2,149.4-172.2,168.4-197.5s41.1-47.5,27.2-61.4s-36.1,8.2-61.4,27.2c-25.3,19-120.3,91.2-197.5,168.4
			c-15.3,15.3-26.4,28.8-34.3,40.8C311.3,421,322.4,429.4,332.6,439.6z"/>
		<g>
			<path style="fill:#FFFFFF;" d="M309.8,462.4c7.4,7.4,13.1,15.6,17.1,24.3c5.1-1.7,10.7-4,16.9-7.3c-5.5-10.1-12.9-20-21.9-29
				c-9.3-9.3-19.4-16.8-29.8-22.3c-3.3,6.2-5.6,11.8-7.3,16.9C293.7,449,302.3,454.8,309.8,462.4z"/>
		</g>
		<path style="fill:#FFFFFF;" d="M298.4,551.6c21.7-21.7,21.7-56.8,0-78.5s-56.8-21.7-78.5,0c-11.5,11.5-22.8,37.4-36.7,71.5
			c-9.2,22.5-31,29.1-31,29.1S263,587.1,298.4,551.6z"/>
	</g>
</g>
</svg>
