<?xml version="1.0" encoding="utf-8"?>
<!-- Generator: Adobe Illustrator 21.1.0, SVG Export Plug-In . SVG Version: 6.00 Build 0)  -->
<svg version="1.1" id="Layer_1" xmlns="http://www.w3.org/2000/svg" xmlns:xlink="http://www.w3.org/1999/xlink" x="0px" y="0px"
	 viewBox="0 0 750 750" style="enable-background:new 0 0 750 750;" xml:space="preserve">
<g>
	<g>
		<g>
			<g>
				<path style="fill:#FFFFFF;" d="M375,666.5c-77.9,0-151.1-30.3-206.1-85.4c-55.1-55-85.4-128.2-85.4-206.1s30.3-151.1,85.4-206.1
					S297.1,83.5,375,83.5s151.1,30.3,206.1,85.4c55.1,55.1,85.4,128.3,85.4,206.1s-30.3,151.1-85.4,206.1
					C526.1,636.2,452.9,666.5,375,666.5z M375,124.5c-138.1,0-250.5,112.4-250.5,250.5S236.9,625.5,375,625.5S625.5,513.1,625.5,375
					S513.1,124.5,375,124.5z"/>
			</g>
		</g>
	</g>
	<g>
		<circle style="fill:#646464;" cx="375" cy="376" r="272.2"/>
		<path style="fill:#8986BB;" d="M182,183c-49.4,49.4-80,117.7-80,193s30.6,143.6,80,193l193-193L182,183z"/>
		<path style="fill:#C294A9;" d="M375,103c-75.4,0-143.6,30.6-193,80l193,193l193.8-192.3C519.3,133.9,450.8,103,375,103z"/>
		<path style="fill:#F4C29C;" d="M568.8,183.7L375,376l193,193c49.4-49.4,80-117.7,80-193C648,301,617.8,233.1,568.8,183.7z"/>
		<path style="fill:#A1CCBD;" d="M375,376L182,569c49.4,49.4,117.7,80,193,80s143.6-30.6,193-80L375,376z"/>
		<g>
			<circle style="fill:none;stroke:#FFFFFF;stroke-width:5;stroke-miterlimit:10;" cx="375" cy="376" r="62"/>
			<circle style="fill:none;stroke:#FFFFFF;stroke-width:5;stroke-miterlimit:10;" cx="375" cy="376" r="122.7"/>
			<circle style="fill:none;stroke:#FFFFFF;stroke-width:5;stroke-miterlimit:10;" cx="375" cy="376" r="200.1"/>
			<circle style="fill:none;stroke:#FFFFFF;stroke-width:5;stroke-miterlimit:10;" cx="375" cy="376" r="62"/>
			<path style="fill:#D396BF;" d="M375,376V103c-75.4,0-143.6,30.6-193,80L375,376z"/>
			<path style="fill:#AD007B;" d="M375,376V175.9c-55.3,0-105.3,22.4-141.5,58.6L375,376z"/>
			<circle style="fill:#8D0068;" cx="375" cy="376" r="122.7"/>
			<path style="fill:#88CBD1;" d="M182,569c49.4,49.4,117.7,80,193,80V376L182,569z"/>
			<path style="fill:#0198A5;" d="M233.5,517.5c36.2,36.2,86.2,58.6,141.5,58.6V376L233.5,517.5z"/>
			<path style="fill:#007F88;" d="M288.2,462.8c22.2,22.2,52.9,35.9,86.8,35.9V376L288.2,462.8z"/>
			<path style="fill:#013D47;" d="M331.2,419.8C342.4,431,357.9,438,375,438v-62L331.2,419.8z"/>
			<path style="fill:#F2997A;" d="M568.8,183.7C519.3,133.9,450.8,103,375,103v273L568.8,183.7z"/>
			<path style="fill:#E2001B;" d="M517,235.1c-36.3-36.5-86.5-59.2-142-59.2V376L517,235.1z"/>
			<path style="fill:#8A0E12;" d="M462.1,289.6c-22.2-22.4-53-36.3-87.1-36.3V376L462.1,289.6z"/>
			<path style="fill:#5B0717;" d="M419,332.4C407.8,321,392.2,314,375,314v62L419,332.4z"/>
			<path style="fill:#FBCF8E;" d="M375,376h273c0-75-30.2-142.9-79.2-192.3L375,376z"/>
			<path style="fill:#F49D01;" d="M375,376h200.1c0-55-22.2-104.8-58-140.9L375,376z"/>
			<path style="fill:#C17401;" d="M375,376h122.7c0-33.7-13.6-64.2-35.6-86.4L375,376z"/>
			<path style="fill:#5F3B07;" d="M375,376h62c0-17-6.9-32.4-18-43.6L375,376z"/>
			<path style="fill:#F4EF9C;" d="M375,376l193,193c49.4-49.4,80-117.7,80-193H375z"/>
			<path style="fill:#EDE100;" d="M375,376l141.5,141.5c36.2-36.2,58.6-86.2,58.6-141.5H375z"/>
			<path style="fill:#C0B600;" d="M375,376l86.8,86.8c22.2-22.2,35.9-52.9,35.9-86.8H375z"/>
			<path style="fill:#5D5A01;" d="M375,376l43.8,43.8C430,408.6,437,393.1,437,376H375z"/>
			<path style="fill:#A1CC97;" d="M375,376v273c75.4,0,143.6-30.6,193-80L375,376z"/>
			<path style="fill:#019C31;" d="M375,376v200.1c55.3,0,105.3-22.4,141.5-58.6L375,376z"/>
			<path style="fill:#017F2B;" d="M375,376v122.7c33.9,0,64.6-13.7,86.8-35.9L375,376z"/>
			<path style="fill:#094412;" d="M375,376v62c17.1,0,32.6-6.9,43.8-18.2L375,376z"/>
			<path style="fill:#8AB6DD;" d="M102,376c0,75.4,30.6,143.6,80,193l193-193H102z"/>
			<path style="fill:#0178BD;" d="M174.9,376c0,55.3,22.4,105.3,58.6,141.5L375,376H174.9z"/>
			<path style="fill:#01639E;" d="M252.3,376c0,33.9,13.7,64.6,35.9,86.8L375,376H252.3z"/>
			<path style="fill:#014A79;" d="M313,376c0,17.1,6.9,32.6,18.2,43.8L375,376H313z"/>
			<path style="fill:#9486BB;" d="M182,183c-49.4,49.4-80,117.7-80,193h273L182,183z"/>
			<path style="fill:#2B2882;" d="M233.5,234.5c-36.2,36.2-58.6,86.2-58.6,141.5H375L233.5,234.5z"/>
			<path style="fill:#21206C;" d="M288.2,289.2c-22.2,22.2-35.9,52.9-35.9,86.8H375L288.2,289.2z"/>
			<path style="fill:#4A0032;" d="M375,376v-62c-17.1,0-32.6,6.9-43.8,18.2L375,376z"/>
			<path style="fill:#130336;" d="M331.2,332.2C320,343.4,313,358.9,313,376h62L331.2,332.2z"/>
			<circle cx="375" cy="376" r="20.5"/>
		</g>
	</g>
</g>
</svg>
