<?xml version="1.0" encoding="utf-8"?>
<!-- Generator: Adobe Illustrator 21.1.0, SVG Export Plug-In . SVG Version: 6.00 Build 0)  -->
<svg version="1.1" id="Layer_1" xmlns="http://www.w3.org/2000/svg" xmlns:xlink="http://www.w3.org/1999/xlink" x="0px" y="0px"
	 viewBox="0 0 750 750" style="enable-background:new 0 0 750 750;" xml:space="preserve">
<path style="fill:#FFFFFF;" d="M278.1,303.1c2-13.9,5.8-26.2,11.4-37c5.6-10.8,12.8-20,21.5-27.4c8.7-7.5,18.7-13.1,30.2-17
	c11.4-3.9,23.8-5.8,37-5.8c12.3,0,24,1.7,35,5.1c11,3.4,20.6,8.6,28.9,15.4c8.3,6.9,14.9,15.4,19.7,25.6c4.8,10.2,7.2,22,7.2,35.4
	c0,10.5-1.6,20-4.8,28.5s-7.7,15.9-13.4,22.3c-5.7,6.4-12.5,11.8-20.2,16.1c-7.8,4.3-16.2,7.7-25.4,9.9
	c23.8,4.4,41.7,13.6,53.8,27.5c12.1,13.9,18.2,31.4,18.2,52.2c0,13.3-2.7,25.6-8,36.9c-5.3,11.4-12.7,21.1-21.9,29.4
	c-9.3,8.2-20.3,14.7-32.9,19.3c-12.7,4.6-26.4,7-41.1,7c-18.4,0-33.8-2.5-46.1-7.4c-12.3-5-22.4-11.4-30.3-19.3
	c-7.9-7.9-14.1-16.8-18.5-26.6c-4.4-9.8-8-19.6-10.7-29.4l8.7-3.7c2.4-1.1,5-1.4,7.7-0.9s4.6,2.2,5.8,5.3c0.8,1.8,1.8,4.7,3.1,8.6
	c1.3,3.9,3.2,8.2,5.6,12.9c2.4,4.7,5.6,9.6,9.5,14.5c3.9,5,8.8,9.5,14.6,13.6c5.9,4.1,12.9,7.5,21.1,10.1s18,3.9,29.3,3.9
	c13.7,0,25.7-2.3,36-6.9c10.3-4.6,18.9-10.4,25.8-17.5s12.1-15,15.5-23.8s5.1-17.3,5.1-25.5c0-9.9-1.6-19.1-4.7-27.7
	c-3.1-8.5-8.3-15.9-15.7-22.1c-7.3-6.2-17-11-28.9-14.6c-12-3.6-26.7-5.4-44.2-5.4V369c14-0.3,26.4-2.2,37-5.6
	c10.7-3.4,19.6-8.1,26.7-14.1c7.2-5.9,12.6-13,16.2-21.3c3.7-8.2,5.5-17.3,5.5-27.2c0-11.4-1.9-21.3-5.7-29.7
	c-3.8-8.4-8.9-15.3-15.3-20.8s-13.9-9.5-22.4-12.1s-17.5-3.9-26.7-3.9c-10.2,0-19.7,1.6-28.3,4.7c-8.7,3.1-16.3,7.5-23,13
	c-6.6,5.6-12.2,12.2-16.6,19.9c-4.4,7.7-7.5,16.1-9.1,25.3c-0.9,3.4-2.2,5.6-3.9,6.6c-1.7,1.1-4,1.5-7.1,1.1L278.1,303.1z"/>
</svg>
