<?xml version="1.0" encoding="utf-8"?>
<!-- Generator: Adobe Illustrator 21.1.0, SVG Export Plug-In . SVG Version: 6.00 Build 0)  -->
<svg version="1.1" id="Layer_1" xmlns="http://www.w3.org/2000/svg" xmlns:xlink="http://www.w3.org/1999/xlink" x="0px" y="0px"
	 viewBox="0 0 750 750" style="enable-background:new 0 0 750 750;" xml:space="preserve">
<g>
	<polygon style="fill:#FFFFFF;" points="395.8,380.4 395.8,380.4 525.3,237.9 525.3,237.9 525.3,237.9 372.7,237.9 237.8,380.4 
		237.8,380.4 237.8,380.4 	"/>
	<path style="fill:#FFFFFF;" d="M565.9,225.9c-0.9-10.1-10-16.1-19.5-16.1c-5.8,0-11.6,0-17.4,0c-23.5,0-46.9,0-70.4,0
		c-23.7,0-47.3,0-71,0c-5.9,0-11.8,0-17.7,0c-6.2,0-11.5,2.2-15.8,6.7c-9.8,10.4-19.6,20.7-29.4,31.1
		c-17.3,18.3-34.6,36.6-51.9,54.9c-16.5,17.5-33.1,35-49.6,52.5c-7.4,7.8-15,15.4-22.1,23.4c-4.2,4.8-5.3,11.7-6.9,17.6
		c-2.9,10.8-5.9,21.6-8.8,32.4c-5.7,20.9-11.4,41.9-17.1,62.8c-0.8,2.9-1.6,5.8-1.3,8.9c0.7,9.5,8.7,16.6,18.1,16.8
		c3.7,0.1,7.5,0,11.2,0c21.2,0,42.5,0,63.7,0c25.5,0,51,0,76.5,0c12.5,0,25,0.3,37.4,0c7-0.2,11.6-3.9,15.9-8.8
		c4.2-4.7,8.3-9.4,12.5-14.2c15.1-17,30.2-34.1,45.2-51.1c17-19.2,34-38.4,51-57.6c10.4-11.7,20.8-23.5,31.1-35.2
		c2.9-3.3,5-7,6.2-11.3c2.3-8.1,4.5-16.3,6.8-24.4c6.5-23.4,13-46.9,19.5-70.3C563.8,238.3,566.6,231.7,565.9,225.9z M554.7,228.9
		c0,1.4-0.8,3.1-1.2,4.4c-1,3.5-1.9,7-2.9,10.5c-3.1,11.1-6.2,22.2-9.2,33.3c-5.4,19.6-10.9,39.2-16.3,58.9
		c-0.8,2.9-2.2,4.9-4.2,7.1c-3.9,4.4-7.9,8.9-11.8,13.3c-14.4,16.3-28.8,32.6-43.2,48.9c-16.8,19-33.6,37.9-50.3,56.9
		c-11,12.5-22,24.9-33.1,37.4c-2.4,2.7-4.5,5.8-8.5,6.1c-3.3,0.2-6.6,0-9.8,0c-20.1,0-40.1,0-60.2,0c-25.2,0-50.4,0-75.6,0
		c-14.2,0-28.4,0.2-42.6,0c-4.8-0.1-8.3-3.7-7.3-8.7c0.3-1.5,0.8-3,1.2-4.5c2.4-8.9,4.8-17.8,7.3-26.8c6.1-22.5,12.2-45,18.3-67.5
		c1-3.8,1.6-9.3,4.3-12.5c2.1-2.4,4.4-4.6,6.6-7c12.8-13.5,25.5-27,38.3-40.5c17.5-18.5,35-37,52.5-55.5c14.5-15.3,29-30.7,43.5-46
		c3.7-3.9,7.4-7.8,11.1-11.8c0.6-0.6,1.1-1.2,1.7-1.8c1.9-1.8,4.1-2.2,6.5-2.2c15.9,0,31.7,0,47.6,0c25.3,0,50.6,0,75.9,0
		c17.2,0,34.4,0,51.6,0c1,0,2-0.1,2.9,0c2.1,0.1,3.9,0.8,5.3,2.5C553.7,224.1,555,226.9,554.7,228.9z"/>
	<polygon style="fill:#FFFFFF;" points="198.2,488.6 198.2,488.6 366.1,488.6 387.5,400.5 387.5,400.5 222.2,400.5 	"/>
	<polygon style="fill:#FFFFFF;" points="393.3,461.8 508.8,331.1 527,265.8 409.4,395.3 	"/>
</g>
</svg>
