<?xml version="1.0" encoding="utf-8"?>
<!-- Generator: Adobe Illustrator 21.1.0, SVG Export Plug-In . SVG Version: 6.00 Build 0)  -->
<svg version="1.1" id="Layer_1" xmlns="http://www.w3.org/2000/svg" xmlns:xlink="http://www.w3.org/1999/xlink" x="0px" y="0px"
	 viewBox="0 0 750 750" style="enable-background:new 0 0 750 750;" xml:space="preserve">
<g>
	<path style="fill:#FFFFFF;" d="M546,237H204c-6.6,0-12-5.4-12-12v-38c0-6.6,5.4-12,12-12h342c6.6,0,12,5.4,12,12v38
		C558,231.6,552.6,237,546,237z"/>
	<path style="fill:#FFFFFF;" d="M435,128H315c-6.6,0-12,5.4-12,12v8c0,6.6,0,2.7,0,12h24.5c0-6.6,5.4-12,12-12h71
		c6.6,0,12,5.4,12,12H447c0-12.2,0-5.4,0-12v-8C447,133.4,441.6,128,435,128z"/>
</g>
<path style="fill:#FFFFFF;" d="M534,255H214c-6.6,0-12,5.4-12,12l30,346c0,6.6,5.4,12,12,12h260c6.6,0,12-5.4,12-12l30-346
	C546,260.4,540.6,255,534,255z M435.7,475.3c3.9,3.9,3.9,10.2,0,14.1c-2,2-4.5,2.9-7.1,2.9s-5.1-1-7.1-2.9L375,442.8l-46.6,46.6
	c-2,2-4.5,2.9-7.1,2.9c-2.6,0-5.1-1-7.1-2.9c-3.9-3.9-3.9-10.2,0-14.1l46.6-46.6l-46.6-46.6c-3.9-3.9-3.9-10.2,0-14.1
	c3.9-3.9,10.2-3.9,14.1,0l46.6,46.6l46.6-46.6c3.9-3.9,10.2-3.9,14.1,0c3.9,3.9,3.9,10.2,0,14.1l-46.6,46.6L435.7,475.3z"/>
</svg>
