<?xml version="1.0" encoding="utf-8"?>
<!-- Generator: Adobe Illustrator 21.1.0, SVG Export Plug-In . SVG Version: 6.00 Build 0)  -->
<svg version="1.1" id="Layer_1" xmlns="http://www.w3.org/2000/svg" xmlns:xlink="http://www.w3.org/1999/xlink" x="0px" y="0px"
	 viewBox="0 0 750 750" style="enable-background:new 0 0 750 750;" xml:space="preserve">
<path style="fill:#FFFFFF;" d="M334.7,337.4c-4.7,6.3-9.1,12.1-13,17.6c-4,5.5-7.5,10.9-10.7,16.2c9-9.3,19.7-16.6,32-21.8
	c12.3-5.3,25.8-7.9,40.5-7.9c13.9,0,26.7,2.3,38.4,6.9c11.7,4.6,21.8,11,30.3,19.3s15.1,18.4,19.9,30.2c4.8,11.8,7.2,25,7.2,39.7
	s-2.6,28.1-7.9,40.5c-5.3,12.3-12.6,23-21.9,32c-9.4,9-20.6,16-33.7,21s-27.5,7.5-43.2,7.5c-15.1,0-28.9-2.4-41.4-7.3
	c-12.5-4.9-23.2-11.9-32.1-21c-8.9-9.1-15.8-20.3-20.7-33.5c-4.9-13.2-7.3-28.1-7.3-44.7c0-12.6,3.2-26.9,9.6-42.9
	c6.4-15.9,16.9-33.8,31.5-53.6l88.2-118.9c2.6-3.5,6.5-5.3,11.7-5.3h19.2L334.7,337.4z M372.1,520.5c13.1,0,24.9-2.1,35.4-6.2
	c10.5-4.1,19.5-9.8,26.9-17s13.1-15.8,17-25.8c4-10,5.9-20.8,5.9-32.6c0-12.3-1.9-23.5-5.8-33.5S442.1,387,435,380
	c-7.1-6.9-15.5-12.3-25.3-16s-20.6-5.6-32.5-5.6c-13.4,0-25.4,2.3-36,7s-19.5,10.7-26.9,18.1c-7.3,7.4-12.9,15.8-16.7,25.3
	c-3.8,9.5-5.7,19-5.7,28.6c0,12,1.9,23.2,5.6,33.4c3.7,10.2,9,19,15.9,26.4s15.2,13.1,25.1,17.3
	C348.7,518.4,359.8,520.5,372.1,520.5z"/>
</svg>
