<?xml version="1.0" encoding="utf-8"?>
<!-- Generator: Adobe Illustrator 21.1.0, SVG Export Plug-In . SVG Version: 6.00 Build 0)  -->
<svg version="1.1" id="Layer_1" xmlns="http://www.w3.org/2000/svg" xmlns:xlink="http://www.w3.org/1999/xlink" x="0px" y="0px"
	 viewBox="0 0 750 750" style="enable-background:new 0 0 750 750;" xml:space="preserve">
<g>
	<g>
		<path style="fill:#FFFFFF;" d="M591.7,132.5H200.9c-9,0-16.3,7.3-16.3,16.3V379h14.8V148.8c0-0.8,0.7-1.5,1.5-1.5h390.8
			c0.8,0,1.5,0.7,1.5,1.5v395.7c0,0.8-0.7,1.5-1.5,1.5H372.9v14.8h218.8c9,0,16.3-7.3,16.3-16.3V148.8
			C608,139.8,600.7,132.5,591.7,132.5z"/>
		<g>
			<g>
				<path style="fill:#FFFFFF;" d="M302.9,447.4h-15.6c-6.6,0-12-5.4-12-12v-30.8c0-6.6,5.4-12,12-12h15.6c6.6,0,12,5.4,12,12v30.8
					C314.9,442,309.5,447.4,302.9,447.4z"/>
			</g>
			<g>
				<path style="fill:#FFFFFF;" d="M324.8,535.1H198.3c-3.5,0-6.3-2.8-6.3-6.3l0,0c0-3.5,2.8-6.3,6.3-6.3h126.5
					c3.5,0,6.3,2.8,6.3,6.3l0,0C331.2,532.3,328.3,535.1,324.8,535.1z"/>
			</g>
			<g>
				<path style="fill:#FFFFFF;" d="M324.8,563.4H198.3c-3.5,0-6.3-2.8-6.3-6.3l0,0c0-3.5,2.8-6.3,6.3-6.3h126.5
					c3.5,0,6.3,2.8,6.3,6.3l0,0C331.2,560.5,328.3,563.4,324.8,563.4z"/>
			</g>
		</g>
		<g>
			<path style="fill:#FFFFFF;" d="M347.1,381.1c-3.6-3.6-8.5-5.6-13.6-5.6h-6H193.1h-35h-8.6c-4.2,0-7.6,3.4-7.6,7.6v226.8
				c0,4.2,3.4,7.6,7.6,7.6H161h5.8h188.7h9.3h11.5c4.2,0,7.6-3.4,7.6-7.6V426c0-5.1-2-10-5.6-13.6L347.1,381.1z M192.6,393.8
				c0-4.9,4-8.8,8.8-8.8h117.7c4.9,0,8.8,4,8.8,8.8v56.8c0,4.2-3.4,7.6-7.6,7.6H200.2c-4.2,0-7.6-3.4-7.6-7.6V393.8z M355.8,598.5
				c0,4.9-4,8.8-8.8,8.8H176c-4.8,0-8.8-3.9-8.8-8.7l-0.7-58.3v-40.1c0-4.2,3.4-7.6,7.6-7.6h174.2c4.2,0,7.6,3.4,7.6,7.6V598.5z"/>
		</g>
	</g>
	<g>
		<g>
			<path style="fill:#FFFFFF;" d="M311.9,224c-7.8-8.5-19.8-12.5-31.2-11.2c-12.3,1.4-22.7,8.4-29.3,18.7c-5.9,9.1-10.7,24.7-5,34.9
				c6.7,12.2,23.9,11.1,34.7,5.8c13.4-6.6,20.7-20.5,26.3-33.6c-4.1-1.7-8.1-3.4-12.2-5.1c-1.9,9.9-3.6,20-4.2,30.1
				c-0.3,4.5,0.7,9.1,3.7,12.5c2.9,3.3,7.1,4.8,11.2,6c8.3,2.4,11.8-10.5,3.5-12.9c-1.5-0.4-4.4-0.8-5.1-2.5
				c-0.9-2.1,0.2-6.2,0.4-8.4c0.8-7.2,1.9-14.3,3.2-21.4c0.6-3.3-0.6-6.6-3.9-7.9c-2.8-1.1-7-0.4-8.3,2.7c-4.6,10.8-9.9,23-21,28.6
				c-4.2,2.1-9.8,3.3-14.3,1.4c-4.4-1.8-3.2-7.8-2.4-11.6c2-9.7,8.3-19.2,17.9-22.7c9.2-3.4,19.8-1.2,26.4,6
				C308.2,239.8,317.7,230.3,311.9,224L311.9,224z"/>
		</g>
	</g>
	<g>
		<g>
			<path style="fill:#FFFFFF;" d="M335.7,221.5c-1.9,15.1-4.2,30.1-6.7,45.1c-0.6,3.6,0.9,7.2,4.7,8.2c3.2,0.9,7.6-1.1,8.2-4.7
				c2.3-13.1,8.3-25.2,18-34.5c4.2-4,9.7-8.6,15.9-7.9c6.4,0.6,7.4,6.2,7.9,11.6c0.4,3.6,2.8,6.7,6.7,6.7c3.3,0,7-3.1,6.7-6.7
				c-1-9.9-3.7-19.4-13.8-23.4c-8.8-3.5-18.5-0.8-25.9,4.6c-14.9,10.8-25.1,28.1-28.3,46.1c4.3,1.2,8.6,2.4,12.9,3.5
				c2.7-16.2,5.1-32.4,7.2-48.6c0.5-3.6-3.4-6.7-6.7-6.7C338.4,214.8,336.2,217.9,335.7,221.5L335.7,221.5z"/>
		</g>
	</g>
	<g>
		<g>
			<path style="fill:#FFFFFF;" d="M425.4,201.3c-4.2,25.2-8.4,50.4-12.6,75.5c-0.6,3.6,0.9,7.2,4.7,8.2c3.2,0.9,7.6-1.1,8.2-4.7
				c4.2-25.2,8.4-50.4,12.6-75.5c0.6-3.6-0.9-7.2-4.7-8.2C430.5,195.7,426,197.7,425.4,201.3L425.4,201.3z"/>
		</g>
	</g>
	<g>
		<g>
			<path style="fill:#FFFFFF;" d="M404,243c19.9,0.4,39.8-2.2,58.9-7.6c8.3-2.3,4.7-15.2-3.5-12.9c-18.1,5.1-36.6,7.5-55.3,7.2
				C395.4,229.5,395.4,242.8,404,243L404,243z"/>
		</g>
	</g>
	<g>
		<g>
			<path style="fill:#FFFFFF;" d="M443.3,325.4c0,7.9,0,15.8,0,23.7c0,8.6,13.4,8.6,13.4,0c0-7.9,0-15.8,0-23.7
				C456.7,316.8,443.3,316.8,443.3,325.4L443.3,325.4z"/>
		</g>
	</g>
	<g>
		<g>
			<path style="fill:#FFFFFF;" d="M484.2,308.3c-0.6,13.6-1.1,27.2-1.7,40.8c-0.3,8.6,13,8.6,13.4,0c0.6-13.6,1.1-27.2,1.7-40.8
				C497.9,299.7,484.5,299.7,484.2,308.3L484.2,308.3z"/>
		</g>
	</g>
	<g>
		<g>
			<path style="fill:#FFFFFF;" d="M428.4,375c16.2,16.7,38.8,29.2,62.6,28.2c21.1-0.9,42.5-12.5,51.4-32.3c1.5-3.3,0.9-7.2-2.4-9.1
				c-2.9-1.7-7.6-0.9-9.1,2.4c-7.2,15.8-23.8,25.3-41,25.7c-20.1,0.5-38.5-10.3-52.1-24.3C431.9,359.4,422.4,368.8,428.4,375
				L428.4,375z"/>
		</g>
	</g>
</g>
</svg>
