<?xml version="1.0" encoding="utf-8"?>
<!-- Generator: Adobe Illustrator 21.1.0, SVG Export Plug-In . SVG Version: 6.00 Build 0)  -->
<svg version="1.1" id="Layer_1" xmlns="http://www.w3.org/2000/svg" xmlns:xlink="http://www.w3.org/1999/xlink" x="0px" y="0px"
	 viewBox="0 0 750 750" style="enable-background:new 0 0 750 750;" xml:space="preserve">
<path style="fill:#FFFFFF;" d="M409.5,367.8c10.4,2.3,19.8,5.7,28.5,10.3c8.6,4.6,16,10.3,22.3,17.1c6.2,6.9,11.1,14.9,14.6,24.2
	c3.5,9.3,5.3,19.9,5.3,31.8c0,13.7-2.6,26.1-7.8,37c-5.2,11-12.4,20.3-21.6,28.1c-9.2,7.8-20.3,13.7-33.1,17.8
	c-12.9,4.1-27.1,6.2-42.6,6.2s-29.8-2.1-42.6-6.2c-12.9-4.1-23.9-10.1-33.1-17.8c-9.2-7.8-16.4-17.1-21.6-28.1s-7.8-23.3-7.8-37
	c0-11.9,1.8-22.5,5.3-31.8s8.3-17.4,14.5-24.2c6.2-6.9,13.6-12.6,22.2-17.1c8.6-4.6,18.1-8,28.5-10.3c-9.5-2.7-17.8-6.5-25.1-11.2
	c-7.3-4.7-13.5-10.4-18.4-16.9c-5-6.6-8.7-13.8-11.3-21.8c-2.6-8-3.9-16.6-3.9-25.7c0-11.4,2.2-22.2,6.5-32.2
	c4.3-10.1,10.6-18.8,18.6-26.3c8.1-7.5,17.9-13.3,29.4-17.6s24.5-6.4,39-6.4c14.3,0,27.2,2.1,38.7,6.4c11.5,4.3,21.3,10.1,29.5,17.6
	s14.4,16.2,18.7,26.3c4.3,10.1,6.5,20.8,6.5,32.2c0,9.1-1.3,17.7-3.9,25.7s-6.4,15.2-11.4,21.7s-11.2,12.1-18.5,16.9
	C427.3,361.3,419,365.1,409.5,367.8z M375,523c12.3,0,23.6-1.7,33.7-5.1c10.1-3.4,18.9-8.3,26.2-14.6c7.3-6.3,13-13.9,16.9-22.7
	c4-8.8,5.9-18.7,5.9-29.5c0-14.2-2.6-26-7.8-35.4c-5.2-9.4-11.8-17-19.9-22.6s-17-9.6-26.7-12c-9.8-2.4-19.2-3.5-28.3-3.5
	s-18.6,1.2-28.3,3.5c-9.8,2.4-18.7,6.4-26.7,12c-8.1,5.6-14.7,13.2-19.9,22.6c-5.2,9.5-7.8,21.3-7.8,35.4c0,10.8,2,20.7,5.9,29.5
	c4,8.8,9.6,16.4,16.8,22.7c7.2,6.3,16,11.2,26.2,14.6C351.4,521.3,362.7,523,375,523z M302.8,292.4c0,8.7,1.4,17.1,4.2,25.1
	c2.8,8.1,7.2,15.3,13.1,21.6c5.9,6.3,13.4,11.4,22.5,15.1s19.8,5.6,32.3,5.6c12.3,0,23-1.9,32.1-5.6s16.6-8.8,22.5-15.1
	c5.9-6.3,10.3-13.5,13.1-21.6c2.8-8.1,4.2-16.5,4.2-25.1c0-9.3-1.6-17.9-4.8-25.9c-3.2-8-7.9-15-14.1-20.9s-13.7-10.6-22.6-13.9
	c-8.9-3.4-19.1-5-30.5-5s-21.6,1.7-30.6,5c-9,3.4-16.6,8-22.7,13.9s-10.9,12.9-14.1,20.9C304.4,274.4,302.8,283.1,302.8,292.4z"/>
</svg>
