<?xml version="1.0" encoding="utf-8"?>
<!-- Generator: Adobe Illustrator 21.1.0, SVG Export Plug-In . SVG Version: 6.00 Build 0)  -->
<svg version="1.1" id="Layer_1" xmlns="http://www.w3.org/2000/svg" xmlns:xlink="http://www.w3.org/1999/xlink" x="0px" y="0px"
	 width="750px" height="750px" viewBox="0 0 750 750" style="enable-background:new 0 0 750 750;" xml:space="preserve">
<path style="fill:#FFFFFF;" d="M569.2,228.5c-5.8-5.8-15.3-5.8-21.2,0L286.7,489.8L201.8,405c-2.8-2.8-6.6-4.4-10.6-4.4
	s-7.8,1.6-10.6,4.4c-2.8,2.8-4.4,6.6-4.4,10.6c0,4,1.6,7.8,4.4,10.6l95.5,95.5l0.1,0.1c2.9,2.8,6.6,4.3,10.5,4.3
	c4,0,7.8-1.6,10.5-4.4l272-272C575.1,243.8,575.1,234.3,569.2,228.5z"/>
</svg>
