<?xml version="1.0" encoding="utf-8"?>
<!-- Generator: Adobe Illustrator 21.1.0, SVG Export Plug-In . SVG Version: 6.00 Build 0)  -->
<svg version="1.1" id="Layer_1" xmlns="http://www.w3.org/2000/svg" xmlns:xlink="http://www.w3.org/1999/xlink" x="0px" y="0px"
	 width="750px" height="750px" viewBox="0 0 750 750" style="enable-background:new 0 0 750 750;" xml:space="preserve">
<path style="fill:#FFFFFF;" d="M440,175c0-20-9.1-37.9-23.3-49.9c-11.3-9.5-25.8-15.1-41.7-15.1c-35.9,0-65,29.1-65,65
	s29.1,65,65,65S440,210.9,440,175z"/>
<path style="fill:#FFFFFF;" d="M440,575.7c0-20-9.1-37.9-23.3-49.9c-11.3-9.5-25.8-15.1-41.7-15.1c-35.9,0-65,29.1-65,65
	c0,35.9,29.1,65,65,65S440,611.6,440,575.7z"/>
<path style="fill:#FFFFFF;" d="M298,233c0-20-9.1-37.9-23.3-49.9c-11.3-9.5-25.8-15.1-41.7-15.1c-35.9,0-65,29.1-65,65
	s29.1,65,65,65S298,268.9,298,233z"/>
<path style="fill:#FFFFFF;" d="M298,517c0-20-9.1-37.9-23.3-49.9c-11.3-9.5-25.8-15.1-41.7-15.1c-35.9,0-65,29.1-65,65
	s29.1,65,65,65S298,552.9,298,517z"/>
<path style="fill:#FFFFFF;" d="M239.3,375c0-20-9.1-37.9-23.3-49.9c-11.3-9.5-25.8-15.1-41.7-15.1c-35.9,0-65,29.1-65,65
	s29.1,65,65,65S239.3,410.9,239.3,375z"/>
<path style="fill:#FFFFFF;" d="M451.3,233c0-20,9.1-37.9,23.3-49.9c11.3-9.5,25.8-15.1,41.7-15.1c35.9,0,65,29.1,65,65
	s-29.1,65-65,65C480.4,298,451.3,268.9,451.3,233z"/>
<path style="fill:#FFFFFF;" d="M451.3,517c0-20,9.1-37.9,23.3-49.9c11.3-9.5,25.8-15.1,41.7-15.1c35.9,0,65,29.1,65,65
	s-29.1,65-65,65C480.4,582,451.3,552.9,451.3,517z"/>
<path style="fill:#FFFFFF;" d="M510,375c0-20,9.1-37.9,23.3-49.9c11.3-9.5,25.8-15.1,41.7-15.1c35.9,0,65,29.1,65,65s-29.1,65-65,65
	S510,410.9,510,375z"/>
</svg>
